<?xml version="1.0" encoding="UTF-8"?>
<!DOCTYPE svg PUBLIC "-//W3C//DTD SVG 1.1//EN" "http://www.w3.org/Graphics/SVG/1.1/DTD/svg11.dtd">
<!-- Creator: CorelDRAW 2018 (64-Bit) -->
<svg xmlns="http://www.w3.org/2000/svg" xml:space="preserve" width="36.076mm" height="27.4218mm" version="1.1" style="shape-rendering:geometricPrecision; text-rendering:geometricPrecision; image-rendering:optimizeQuality; fill-rule:evenodd; clip-rule:evenodd"
viewBox="0 0 1005.35 764.18"
 xmlns:xlink="http://www.w3.org/1999/xlink">
 <defs>
  <style type="text/css">
   <![CDATA[
    .fil0 {fill:#00A2AC}
   ]]>
  </style>
 </defs>
 <g id="Warstwa_x0020_1">
  <metadata id="CorelCorpID_0Corel-Layer"/>
  <path class="fil0" d="M119.05 158.18l111.39 0c12.25,8.32 26.15,14.93 40.8,15.71 6.63,0.35 13.23,-0.53 19.52,-2.65 2.79,-0.94 5.36,-2.24 7.99,-3.52 0.68,-0.33 2.43,-1.21 3.48,-1.51 11.66,8.06 24.21,16.22 37.52,22.24l0 31.8 -131.06 0 0 41.14c-30.81,-24.79 -61.14,-50.3 -89.64,-77.63l0 -25.58zm197.24 0l23.46 0 0 15c-2.1,-1.02 -4.27,-2.12 -6.54,-3.3 -6.41,-3.32 -11.94,-7.07 -16.92,-11.7zm-96 112.5l100.29 0 0 58.3 -41.68 0c-0.59,-1.36 -1.24,-2.7 -1.93,-4.04 -6.23,-12 -15.88,-22.05 -26.44,-30.35 -10.09,-7.93 -20.18,-15.89 -30.25,-23.91zm-11.6 64.3l0 44.01 -0.99 1.15 0.04 2.03c0.47,20.95 -0.66,41.94 -0.19,62.89l0.04 1.94 -88.56 0 0 -183.2c30.52,22.94 61.39,45.55 89.64,71.18zm318.81 64.34l-101.68 0 -13.99 47.68 -91.19 0 108.54 -288.82 97.31 0 108.6 288.82 -93.4 0 -14.19 -47.68zm-18.69 -62.47l-31.94 -103.83 -31.74 103.83 63.68 0zm153.86 -178.67l117.41 0 45.32 175.72 45.12 -175.72 117.01 0 0 288.82 -72.9 0 0 -220.23 -56.55 220.23 -65.97 0 -56.35 -220.23 0 220.23 -73.1 0 0 -288.82z"/>
  <path class="fil0" d="M118.45 475.36l117.3 0 23.91 92.69c-8.13,-5.71 -17.35,-10.34 -26.32,-14.31 -11.71,-5.19 -23.81,-9.6 -35.89,-13.86 -9.81,-3.46 -19.67,-6.81 -29.45,-10.38 -8.7,-3.17 -17.45,-6.51 -25.82,-10.44 -6.78,-3.19 -18.74,-9.22 -23.83,-16.82l0 -15.44 0.14 -0.28 -0.03 -11.17zm175.29 126.4l32.46 -126.4 117.01 0 0 288.82 -72.9 0 0 -220.23 -56.55 220.23 -65.97 0 -8.81 -34.44c17.27,-5.67 34,-12.19 49.84,-19.29 10.66,-4.78 19.37,-12.25 24.5,-22.87 9.1,-18.81 4.31,-41.51 -3.96,-59.7 -4.14,-9.1 -9.46,-17.89 -15.62,-26.12zm-65.64 85.47l-22.46 -87.79c3.63,1.78 7.19,3.65 10.64,5.64 16.14,9.27 36.86,26.32 37.79,46.6 0.75,16.44 -12.28,27.9 -25.97,35.55zm-36.66 -94.16l0 110.68c-13.41,5.79 -26.85,11.51 -40.42,16.95 -10.74,4.31 -21.65,8.51 -32.68,12.35l0 -165.56c11.6,4.19 23.38,7.97 35.04,11.86 12.52,4.17 25.52,8.54 38.06,13.72zm0 149.74l0 21.38 -73.1 0 0 -11.78c24.14,-0.83 48.81,-4.24 73.1,-9.6zm281.98 -267.44l239.13 0 0 61.67 -149.69 0 0 45.93 138.86 0 0 58.91 -138.86 0 0 56.89 154.06 0 0 65.43 -243.5 0 0 -288.82zm266.18 0l132.61 0c26.09,0 47.2,3.56 63.35,10.63 16.07,7.13 29.39,17.28 39.88,30.53 10.49,13.32 18.09,28.71 22.86,46.33 4.71,17.62 7.06,36.25 7.06,55.95 0,30.87 -3.5,54.8 -10.56,71.82 -6.99,17.01 -16.75,31.27 -29.25,42.7 -12.44,11.5 -25.82,19.17 -40.15,23 -19.57,5.24 -37.32,7.87 -53.19,7.87l-132.61 0 0 -288.82zm89.23 65.43l0 157.76 21.86 0c18.69,0 31.94,-2.02 39.81,-6.19 7.87,-4.1 14.05,-11.36 18.56,-21.65 4.44,-10.29 6.66,-27.03 6.66,-50.17 0,-30.6 -4.98,-51.51 -14.93,-62.81 -10.02,-11.3 -26.56,-16.95 -49.69,-16.95l-22.26 0z"/>
  <polygon class="fil0" points="118.39,456.06 987.4,456.06 987.4,467.18 118.43,467.18 "/>
  <path class="fil0" d="M91.68 746.93c40.79,-11.09 90.32,-33.35 127.5,-49.45 30.3,-13.12 40.92,-29.6 40.17,-46.05 -0.85,-18.65 -16.62,-37.27 -40.44,-50.96 -33.49,-19.25 -79.81,-29.46 -116.55,-44.85 -57.25,-23.97 -52.97,-77.59 -13.99,-116.95 8.28,-8.36 17.5,-11.24 24.64,-15.65l0.18 62.23c-21.78,42.59 100.81,53.85 146.78,89.6 50.25,39.07 75.58,108.82 26.68,130.76 -66.46,29.82 -137.3,44.22 -194.97,41.31z"/>
  <path class="fil0" d="M213.04 382.05c0.44,19.57 -0.63,43.33 -0.19,62.89 11.1,-4.61 40.15,-33.56 52.75,-52.52 19.45,-29.26 20.55,-63.07 -18.34,-93.67 -56.37,-44.36 -113.07,-89.48 -161.69,-141.23 -18.76,-19.96 -33.87,-66.35 -13.81,-84.61 13.28,-12.09 37.68,-15.66 60.57,-5.32 9.78,4.42 19.16,12.33 24.09,16.72l28.39 25.34c23.43,23.29 63.77,70.23 104.26,56.57 6.57,-2.22 12.41,-6.98 15.42,-4.89 23.95,16.61 56.73,37.68 89.87,29.41 9.58,-2.39 13.55,-7.38 12.74,-13.57 -30.94,15.37 -45.88,13.21 -76.32,-2.57 -25.95,-13.46 -31.72,-30.14 -47.12,-54.22 -0.69,-1.09 -2.03,11.67 -8.57,12.65 -7.16,1.07 -11.9,-3.51 -11.98,-8.53 -0.25,-14.81 18.23,-5.66 15.76,-9.98 -5.66,-9.94 -14.13,-16.13 -24.48,-20.49 -6.87,-2.89 -24.1,0.73 -47.31,-17.67 -26.88,-21.32 -51.78,-43.91 -80.65,-63.97 -43.92,-30.51 -107.86,-0.35 -121.33,44.41 -22.29,74.05 32.37,137.04 88.48,180.92 40.65,31.79 84.18,61.53 121.98,96.4 12.08,11.14 10.68,32.6 -2.53,47.95z"/>
 </g>
</svg>
