<?xml version="1.0" encoding="UTF-8"?> <!-- Generator: Adobe Illustrator 26.0.1, SVG Export Plug-In . SVG Version: 6.00 Build 0) --> <svg xmlns="http://www.w3.org/2000/svg" xmlns:xlink="http://www.w3.org/1999/xlink" version="1.1" id="Warstwa_1" x="0px" y="0px" viewBox="0 0 303 53" style="enable-background:new 0 0 303 53;" xml:space="preserve"> <style type="text/css"> .st0{fill:#21A969;} .st1{fill:#3C3F3D;} </style> <path class="st0" d="M72.6,31.7c-2.8,0-5.5,1.1-7.5,3.1S62,39.5,62,42.3c0,1.5,0.3,3,0.9,4.3c-1.8,1.2-4,1.8-6.2,1.8 c-0.7,0-1.3,0-2-0.1c-0.3,0-0.5,0-0.8,0c-0.3,0.1-0.5,0.2-0.7,0.3c-0.2,0.2-0.4,0.4-0.5,0.6c-0.1,0.2-0.2,0.5-0.3,0.8 c0,0.3,0,0.5,0,0.8c0.1,0.3,0.2,0.5,0.3,0.7c0.2,0.2,0.4,0.4,0.6,0.5c0.2,0.1,0.5,0.2,0.8,0.3c0.9,0.1,1.7,0.2,2.6,0.2 c3,0,5.9-0.9,8.4-2.5c1.3,1.2,2.8,2.1,4.5,2.6s3.5,0.5,5.2,0.2c1.7-0.4,3.3-1.1,4.6-2.3c1.3-1.1,2.4-2.6,3-4.2 c0.7-1.6,0.9-3.4,0.7-5.1c-0.2-1.7-0.8-3.4-1.8-4.9c-1-1.4-2.3-2.6-3.8-3.5C76.1,32.1,74.3,31.7,72.6,31.7L72.6,31.7z M72.6,48.9 c-1.3,0-2.6-0.4-3.7-1.1c-1.1-0.7-1.9-1.8-2.4-3s-0.6-2.5-0.4-3.8c0.3-1.3,0.9-2.5,1.8-3.4s2.1-1.6,3.4-1.8c1.3-0.3,2.6-0.1,3.8,0.4 c1.2,0.5,2.2,1.3,3,2.4c0.7,1.1,1.1,2.4,1.1,3.7c0,1.8-0.7,3.4-1.9,4.7C76.1,48.2,74.4,48.9,72.6,48.9z"></path> <path class="st0" d="M53.9,22.5c-1.8-1.7-4.1-2.6-6.5-2.7c-1.2,0-2.5,0.3-3.6,0.8s-2.1,1.3-2.9,2.2c-2.6,2.8-3.1,6.7-3.1,9.4 c0,2.9,0.6,5.8,1.7,8.4c0.2,0.5,0.6,0.9,1.1,1.1c0.5,0.2,1.1,0.2,1.6,0s0.9-0.6,1.1-1.1c0.2-0.5,0.2-1.1,0-1.6 c-0.9-2.1-1.4-4.5-1.4-6.8c0-2.9,0.7-5.3,2.1-6.8c0.4-0.5,0.9-0.9,1.5-1.2s1.2-0.5,1.9-0.5c2.2,0,5.9,1.7,5.9,7.9 c0,2.2-0.4,4.4-1.4,6.5c-0.9,2-2.3,3.8-4,5.2c-3.9,3.3-9.4,5-16.1,5c-1.7,0.1-3.4-0.2-5-0.8s-3.1-1.5-4.3-2.7 c-1.1-1.1-2-2.4-2.6-3.9s-0.9-3-0.9-4.6c0-1.1,0.1-2.3,0.4-3.4c5.1-0.8,10.6-3.9,15-8.6C37.2,21.7,39,18,39.6,14 c0.5-3.9-0.6-7.4-3.1-9.8c-0.8-0.7-1.7-1.2-2.8-1.5c-1-0.3-2.1-0.3-3.2-0.2c-2.3,0.4-4.6,1.2-6.6,2.5c-0.3,0.1-0.5,0.3-0.7,0.5 S22.9,6,22.8,6.3s-0.1,0.6-0.1,0.9S22.8,7.8,23,8c0.2,0.2,0.4,0.5,0.6,0.6c0.2,0.2,0.5,0.3,0.8,0.3s0.6,0,0.9,0 c0.3-0.1,0.5-0.2,0.8-0.4c3.2-2,6.3-2.5,7.6-1.3c1.5,1.4,2.2,3.7,1.9,6.3c-0.5,3.1-1.9,6-4.1,8.2c-2,2.2-4.4,4-7,5.4 c-2,1.1-4.1,1.8-6.4,2.1c-2.2-0.7-4.2-1.9-5.9-3.4C9.9,23.9,8,21.6,6.5,19c-1.7-2.6-2.5-5.8-2.3-8.9c0.2-2.6,1.4-4.7,3.2-5.8 c1.5-0.9,4.4,0.3,7.1,2.9c0.2,0.2,0.4,0.3,0.7,0.4c0.2,0.1,0.5,0.1,0.8,0.1c0.3,0,0.5-0.1,0.8-0.2C17,7.4,17.3,7.2,17.5,7 s0.3-0.4,0.4-0.7S18,5.8,18,5.5S17.9,5,17.8,4.7c-0.1-0.2-0.3-0.5-0.5-0.7c-1.7-1.7-3.7-3-5.9-3.8C10.3,0.1,9.2,0,8.2,0 c-1.1,0.1-2.1,0.4-3,0.9C2.2,2.7,0.4,5.8,0,9.8c-0.3,4,0.7,8,2.8,11.3c3.2,5.4,7.8,9.5,12.4,11.4c-0.3,1.3-0.4,2.6-0.4,3.9 c0,2.1,0.4,4.2,1.2,6.2c0.8,2,2,3.7,3.5,5.2c3.3,3.1,7.7,4.8,12.2,4.7c7.6,0,14.1-2.1,18.7-6c2.2-1.8,3.9-4.1,5.1-6.6 c1.2-2.5,1.8-5.3,1.8-8.1C57.3,26.8,55.4,24.1,53.9,22.5z"></path> <path class="st0" d="M72.6,45.3c1.7,0,3-1.3,3-3s-1.3-3-3-3s-3,1.3-3,3S71,45.3,72.6,45.3z"></path> <path class="st1" d="M105.3,43.1h5.9V16.6h10.1v-5.1h-26v5.1h10V43.1z"></path> <path class="st1" d="M141.9,37.1c-2.5,1.4-5.3,2-8.1,2c-4.6,0-7.1-2-7.7-6.1h17.8c0.1-0.6,0.1-1.2,0.1-1.8c0-8.6-5.1-12.5-11.7-12.5 c-7.1,0-12.2,5-12.2,12.7s4.5,12.4,12.8,12.4c3.5,0.1,7-0.8,10-2.5L141.9,37.1z M132.2,23.2c3.5,0,5.5,2.1,5.9,6.2h-12 C126.5,25.4,128.7,23.2,132.2,23.2z"></path> <path class="st1" d="M149.4,43.1h5.8V11.5h-5.8V43.1z"></path> <path class="st1" d="M182.6,37.1c-2.5,1.4-5.3,2-8.1,2c-4.6,0-7.1-2-7.7-6.1h17.8c0.1-0.6,0.1-1.2,0.1-1.8c0-8.6-5.1-12.5-11.7-12.5 c-7.1,0-12.2,5-12.2,12.7s4.5,12.4,12.8,12.4c3.5,0.1,7-0.8,10-2.5L182.6,37.1z M172.9,23.2c3.5,0,5.5,2.1,5.9,6.2h-12 C167.2,25.4,169.4,23.2,172.9,23.2z"></path> <path class="st1" d="M190.1,43.1h5.8V30.4c1.8-4.5,4-6.8,7.1-6.8c2.7,0,4.1,1.8,4.1,5.8V43h5.7V30.4c1.8-4.5,4-6.8,7.1-6.8 c2.7,0,4.3,1.8,4.3,5.8V43h5.7V29c0-7.7-3.7-10.4-8.4-10.4c-4.1,0-6.9,2-9.1,5.9c-1.2-4.3-4.1-5.9-7.7-5.9c-3.8,0-6.7,1.7-8.8,5 v-4.5h-5.8L190.1,43.1z"></path> <path class="st1" d="M257.1,37.1c-2.5,1.4-5.3,2-8.1,2c-4.6,0-7.1-2-7.7-6.1h17.9c0.1-0.6,0.1-1.2,0.1-1.8c0-8.6-5.1-12.5-11.7-12.5 c-7.1,0-12.2,5-12.2,12.7s4.5,12.4,12.8,12.4c3.5,0.1,7-0.8,10-2.5L257.1,37.1z M247.4,23.2c3.5,0,5.5,2.1,5.9,6.2h-12 C241.7,25.4,243.9,23.2,247.4,23.2z"></path> <path class="st1" d="M263.3,31.3c0,8.1,5.5,12.4,11.6,12.4c1.7,0,3.4-0.4,4.9-1.3c1.5-0.9,2.7-2.1,3.6-3.6v4.3h5.6V11.5h-5.7v11.4 c-0.9-1.4-2.2-2.4-3.7-3.2c-1.5-0.7-3.1-1.1-4.8-1C268.6,18.7,263.3,23.1,263.3,31.3z M269.3,31.2c0-5,2.8-7.6,6.5-7.6 c3.6,0,6.5,2.8,7.7,7.4v0.2c-1.1,4.5-3.8,7.6-7.6,7.6C272,38.8,269.3,36,269.3,31.2L269.3,31.2z"></path> <path class="st1" d="M295.3,12.2c0,0.7,0.2,1.4,0.5,2c0.4,0.6,0.9,1.1,1.6,1.4c0.7,0.3,1.4,0.4,2.1,0.3c0.7-0.1,1.4-0.5,1.9-1 s0.9-1.1,1-1.8s0.1-1.4-0.2-2.1c-0.3-0.7-0.7-1.2-1.3-1.6c-0.6-0.4-1.3-0.6-2-0.6c-0.5,0-0.9,0.1-1.4,0.2c-0.4,0.2-0.8,0.4-1.2,0.7 c-0.3,0.3-0.6,0.7-0.8,1.1C295.4,11.3,295.3,11.7,295.3,12.2z M296,43.1h5.8V19.3H296V43.1z"></path> </svg> 